<svg width="512" height="512" viewBox="0 0 512 512" fill="none" xmlns="http://www.w3.org/2000/svg">
  <rect width="512" height="512" rx="128" fill="white"/>
  <rect x="120" y="80" width="272" height="352" rx="20" fill="#1e3a5f"/>
  <path d="M392 80V432C392 432 370 432 360 432C350 432 340 422 340 412V100C340 90 350 80 360 80H392Z" fill="#162c4a"/>
  <rect x="100" y="140" width="40" height="12" rx="6" fill="white"/>
  <rect x="100" y="250" width="40" height="12" rx="6" fill="white"/>
  <rect x="100" y="360" width="40" height="12" rx="6" fill="white"/>
  <path d="M200 220H312M200 260H312M200 220L256 320M200 260L256 320" stroke="#00e676" stroke-width="24" stroke-linecap="round"/>
  <circle cx="280" cy="340" r="48" stroke="#0091ea" stroke-width="16" fill="none"/>
  <path d="M315 375L350 410" stroke="#0091ea" stroke-width="16" stroke-linecap="round"/>
</svg>
